<mxfile host="app.diagrams.net" modified="2024-05-19T21:31:27.463Z" agent="Mozilla/5.0 (Windows NT 10.0; Win64; x64) AppleWebKit/537.36 (KHTML, like Gecko) Chrome/124.0.0.0 Safari/537.36" etag="q4yktoYjDCDk8sUiWRAW" version="24.4.0" type="github" pages="2">
  <diagram id="C5RBs43oDa-KdzZeNtuy" name="Page-1">
    <mxGraphModel dx="2049" dy="1066" grid="1" gridSize="10" guides="1" tooltips="1" connect="1" arrows="1" fold="1" page="1" pageScale="1" pageWidth="1169" pageHeight="827" math="0" shadow="0">
      <root>
        <mxCell id="WIyWlLk6GJQsqaUBKTNV-0" />
        <mxCell id="WIyWlLk6GJQsqaUBKTNV-1" parent="WIyWlLk6GJQsqaUBKTNV-0" />
        <mxCell id="gmqY-t1u-GA2Hd6Ib90b-1" value="" style="ellipse;whiteSpace=wrap;html=1;aspect=fixed;" vertex="1" parent="WIyWlLk6GJQsqaUBKTNV-1">
          <mxGeometry x="245" y="338" width="20" height="20" as="geometry" />
        </mxCell>
        <mxCell id="gmqY-t1u-GA2Hd6Ib90b-2" value="Customer register" style="rounded=1;whiteSpace=wrap;html=1;" vertex="1" parent="WIyWlLk6GJQsqaUBKTNV-1">
          <mxGeometry x="315" y="318" width="120" height="60" as="geometry" />
        </mxCell>
        <mxCell id="gmqY-t1u-GA2Hd6Ib90b-3" value="Customer enter username and password" style="rounded=1;whiteSpace=wrap;html=1;" vertex="1" parent="WIyWlLk6GJQsqaUBKTNV-1">
          <mxGeometry x="495" y="318" width="120" height="60" as="geometry" />
        </mxCell>
        <mxCell id="gmqY-t1u-GA2Hd6Ib90b-4" value="authenticated?" style="rhombus;whiteSpace=wrap;html=1;" vertex="1" parent="WIyWlLk6GJQsqaUBKTNV-1">
          <mxGeometry x="675" y="293" width="110" height="110" as="geometry" />
        </mxCell>
        <mxCell id="gmqY-t1u-GA2Hd6Ib90b-5" value="Customer add items to cart" style="rounded=1;whiteSpace=wrap;html=1;" vertex="1" parent="WIyWlLk6GJQsqaUBKTNV-1">
          <mxGeometry x="845" y="318" width="120" height="60" as="geometry" />
        </mxCell>
        <mxCell id="gmqY-t1u-GA2Hd6Ib90b-6" value="Check items if they are avaliable?" style="rounded=1;whiteSpace=wrap;html=1;" vertex="1" parent="WIyWlLk6GJQsqaUBKTNV-1">
          <mxGeometry x="845" y="488" width="120" height="60" as="geometry" />
        </mxCell>
        <mxCell id="gmqY-t1u-GA2Hd6Ib90b-7" value="Order details" style="rounded=1;whiteSpace=wrap;html=1;" vertex="1" parent="WIyWlLk6GJQsqaUBKTNV-1">
          <mxGeometry x="675" y="488" width="110" height="60" as="geometry" />
        </mxCell>
        <mxCell id="gmqY-t1u-GA2Hd6Ib90b-8" value="Payment" style="rounded=1;whiteSpace=wrap;html=1;" vertex="1" parent="WIyWlLk6GJQsqaUBKTNV-1">
          <mxGeometry x="495" y="488" width="120" height="60" as="geometry" />
        </mxCell>
        <mxCell id="gmqY-t1u-GA2Hd6Ib90b-9" value="Order confirmed" style="rounded=1;whiteSpace=wrap;html=1;" vertex="1" parent="WIyWlLk6GJQsqaUBKTNV-1">
          <mxGeometry x="305" y="488" width="120" height="60" as="geometry" />
        </mxCell>
        <mxCell id="gmqY-t1u-GA2Hd6Ib90b-10" value="" style="ellipse;shape=doubleEllipse;whiteSpace=wrap;html=1;aspect=fixed;" vertex="1" parent="WIyWlLk6GJQsqaUBKTNV-1">
          <mxGeometry x="245" y="508" width="20" height="20" as="geometry" />
        </mxCell>
        <mxCell id="gmqY-t1u-GA2Hd6Ib90b-12" value="&lt;h1 style=&quot;margin-top: 0px;&quot;&gt;&lt;span style=&quot;background-color: initial; font-size: 12px; font-weight: normal;&quot;&gt;Order added in the system&lt;/span&gt;&lt;br&gt;&lt;/h1&gt;" style="text;html=1;whiteSpace=wrap;overflow=hidden;rounded=0;align=center;" vertex="1" parent="WIyWlLk6GJQsqaUBKTNV-1">
          <mxGeometry x="205" y="598" width="180" height="50" as="geometry" />
        </mxCell>
        <mxCell id="gmqY-t1u-GA2Hd6Ib90b-13" value="" style="endArrow=block;dashed=1;html=1;dashPattern=1 3;strokeWidth=2;rounded=0;exitX=0.5;exitY=0;exitDx=0;exitDy=0;entryX=0.5;entryY=1;entryDx=0;entryDy=0;endFill=0;" edge="1" parent="WIyWlLk6GJQsqaUBKTNV-1" source="gmqY-t1u-GA2Hd6Ib90b-12" target="gmqY-t1u-GA2Hd6Ib90b-10">
          <mxGeometry width="50" height="50" relative="1" as="geometry">
            <mxPoint x="299.0799999999999" y="599.1999999999999" as="sourcePoint" />
            <mxPoint x="655" y="588" as="targetPoint" />
          </mxGeometry>
        </mxCell>
        <mxCell id="gmqY-t1u-GA2Hd6Ib90b-14" value="" style="endArrow=classic;html=1;rounded=0;exitX=1;exitY=0.5;exitDx=0;exitDy=0;entryX=0;entryY=0.5;entryDx=0;entryDy=0;" edge="1" parent="WIyWlLk6GJQsqaUBKTNV-1" source="gmqY-t1u-GA2Hd6Ib90b-2" target="gmqY-t1u-GA2Hd6Ib90b-3">
          <mxGeometry width="50" height="50" relative="1" as="geometry">
            <mxPoint x="455" y="558" as="sourcePoint" />
            <mxPoint x="505" y="508" as="targetPoint" />
          </mxGeometry>
        </mxCell>
        <mxCell id="gmqY-t1u-GA2Hd6Ib90b-15" value="" style="endArrow=classic;html=1;rounded=0;exitX=1;exitY=0.5;exitDx=0;exitDy=0;entryX=0;entryY=0.5;entryDx=0;entryDy=0;" edge="1" parent="WIyWlLk6GJQsqaUBKTNV-1" source="gmqY-t1u-GA2Hd6Ib90b-1" target="gmqY-t1u-GA2Hd6Ib90b-2">
          <mxGeometry width="50" height="50" relative="1" as="geometry">
            <mxPoint x="465" y="568" as="sourcePoint" />
            <mxPoint x="515" y="518" as="targetPoint" />
          </mxGeometry>
        </mxCell>
        <mxCell id="gmqY-t1u-GA2Hd6Ib90b-16" value="" style="endArrow=classic;html=1;rounded=0;exitX=1;exitY=0.5;exitDx=0;exitDy=0;entryX=0;entryY=0.5;entryDx=0;entryDy=0;" edge="1" parent="WIyWlLk6GJQsqaUBKTNV-1" source="gmqY-t1u-GA2Hd6Ib90b-3" target="gmqY-t1u-GA2Hd6Ib90b-4">
          <mxGeometry width="50" height="50" relative="1" as="geometry">
            <mxPoint x="475" y="578" as="sourcePoint" />
            <mxPoint x="525" y="528" as="targetPoint" />
          </mxGeometry>
        </mxCell>
        <mxCell id="gmqY-t1u-GA2Hd6Ib90b-17" value="" style="endArrow=classic;html=1;rounded=0;exitX=1;exitY=0.5;exitDx=0;exitDy=0;entryX=0;entryY=0.5;entryDx=0;entryDy=0;" edge="1" parent="WIyWlLk6GJQsqaUBKTNV-1" source="gmqY-t1u-GA2Hd6Ib90b-4" target="gmqY-t1u-GA2Hd6Ib90b-5">
          <mxGeometry width="50" height="50" relative="1" as="geometry">
            <mxPoint x="485" y="588" as="sourcePoint" />
            <mxPoint x="535" y="538" as="targetPoint" />
          </mxGeometry>
        </mxCell>
        <mxCell id="gmqY-t1u-GA2Hd6Ib90b-27" value="True" style="edgeLabel;html=1;align=center;verticalAlign=middle;resizable=0;points=[];" vertex="1" connectable="0" parent="gmqY-t1u-GA2Hd6Ib90b-17">
          <mxGeometry x="-0.0841" relative="1" as="geometry">
            <mxPoint as="offset" />
          </mxGeometry>
        </mxCell>
        <mxCell id="gmqY-t1u-GA2Hd6Ib90b-18" value="" style="endArrow=classic;html=1;rounded=0;exitX=0.5;exitY=1;exitDx=0;exitDy=0;entryX=0.5;entryY=0;entryDx=0;entryDy=0;" edge="1" parent="WIyWlLk6GJQsqaUBKTNV-1" source="gmqY-t1u-GA2Hd6Ib90b-5" target="gmqY-t1u-GA2Hd6Ib90b-6">
          <mxGeometry width="50" height="50" relative="1" as="geometry">
            <mxPoint x="495" y="598" as="sourcePoint" />
            <mxPoint x="545" y="548" as="targetPoint" />
          </mxGeometry>
        </mxCell>
        <mxCell id="gmqY-t1u-GA2Hd6Ib90b-19" value="" style="endArrow=classic;html=1;rounded=0;entryX=1;entryY=0.5;entryDx=0;entryDy=0;exitX=0;exitY=0.5;exitDx=0;exitDy=0;" edge="1" parent="WIyWlLk6GJQsqaUBKTNV-1" source="gmqY-t1u-GA2Hd6Ib90b-6" target="gmqY-t1u-GA2Hd6Ib90b-7">
          <mxGeometry width="50" height="50" relative="1" as="geometry">
            <mxPoint x="505" y="608" as="sourcePoint" />
            <mxPoint x="555" y="558" as="targetPoint" />
          </mxGeometry>
        </mxCell>
        <mxCell id="gmqY-t1u-GA2Hd6Ib90b-20" value="" style="endArrow=classic;html=1;rounded=0;entryX=1;entryY=0.5;entryDx=0;entryDy=0;" edge="1" parent="WIyWlLk6GJQsqaUBKTNV-1" source="gmqY-t1u-GA2Hd6Ib90b-7" target="gmqY-t1u-GA2Hd6Ib90b-8">
          <mxGeometry width="50" height="50" relative="1" as="geometry">
            <mxPoint x="515" y="618" as="sourcePoint" />
            <mxPoint x="565" y="568" as="targetPoint" />
          </mxGeometry>
        </mxCell>
        <mxCell id="gmqY-t1u-GA2Hd6Ib90b-21" value="" style="endArrow=classic;html=1;rounded=0;entryX=1;entryY=0.5;entryDx=0;entryDy=0;exitX=0;exitY=0.5;exitDx=0;exitDy=0;" edge="1" parent="WIyWlLk6GJQsqaUBKTNV-1" source="gmqY-t1u-GA2Hd6Ib90b-8" target="gmqY-t1u-GA2Hd6Ib90b-9">
          <mxGeometry width="50" height="50" relative="1" as="geometry">
            <mxPoint x="525" y="628" as="sourcePoint" />
            <mxPoint x="575" y="578" as="targetPoint" />
          </mxGeometry>
        </mxCell>
        <mxCell id="gmqY-t1u-GA2Hd6Ib90b-22" value="" style="endArrow=classic;html=1;rounded=0;exitX=0;exitY=0.5;exitDx=0;exitDy=0;entryX=1;entryY=0.5;entryDx=0;entryDy=0;" edge="1" parent="WIyWlLk6GJQsqaUBKTNV-1" source="gmqY-t1u-GA2Hd6Ib90b-9" target="gmqY-t1u-GA2Hd6Ib90b-10">
          <mxGeometry width="50" height="50" relative="1" as="geometry">
            <mxPoint x="535" y="638" as="sourcePoint" />
            <mxPoint x="585" y="588" as="targetPoint" />
          </mxGeometry>
        </mxCell>
        <mxCell id="gmqY-t1u-GA2Hd6Ib90b-24" value="" style="edgeStyle=elbowEdgeStyle;elbow=vertical;endArrow=classic;html=1;curved=0;rounded=0;endSize=8;startSize=8;exitX=0.5;exitY=0;exitDx=0;exitDy=0;entryX=0.5;entryY=0;entryDx=0;entryDy=0;" edge="1" parent="WIyWlLk6GJQsqaUBKTNV-1" source="gmqY-t1u-GA2Hd6Ib90b-4" target="gmqY-t1u-GA2Hd6Ib90b-3">
          <mxGeometry width="50" height="50" relative="1" as="geometry">
            <mxPoint x="645" y="418" as="sourcePoint" />
            <mxPoint x="695" y="368" as="targetPoint" />
            <Array as="points">
              <mxPoint x="645" y="258" />
            </Array>
          </mxGeometry>
        </mxCell>
        <mxCell id="gmqY-t1u-GA2Hd6Ib90b-25" value="False" style="edgeLabel;html=1;align=center;verticalAlign=middle;resizable=0;points=[];" vertex="1" connectable="0" parent="gmqY-t1u-GA2Hd6Ib90b-24">
          <mxGeometry x="-0.1386" y="-1" relative="1" as="geometry">
            <mxPoint as="offset" />
          </mxGeometry>
        </mxCell>
        <mxCell id="_va5cLmaYM4gg9_JbFcl-0" value="Create New Customer Order Activity Diagram" style="text;strokeColor=none;fillColor=none;html=1;fontSize=24;fontStyle=1;verticalAlign=middle;align=center;" vertex="1" parent="WIyWlLk6GJQsqaUBKTNV-1">
          <mxGeometry x="245" y="178" width="720" height="40" as="geometry" />
        </mxCell>
      </root>
    </mxGraphModel>
  </diagram>
  <diagram id="PuYu4V7mRzpc4IewnknB" name="Page-2">
    <mxGraphModel dx="1434" dy="746" grid="1" gridSize="10" guides="1" tooltips="1" connect="1" arrows="1" fold="1" page="1" pageScale="1" pageWidth="1169" pageHeight="827" math="0" shadow="0">
      <root>
        <mxCell id="0" />
        <mxCell id="1" parent="0" />
        <mxCell id="ooWU4uST3X7tyOS2osCu-1" value="" style="ellipse;whiteSpace=wrap;html=1;aspect=fixed;" vertex="1" parent="1">
          <mxGeometry x="245" y="338" width="20" height="20" as="geometry" />
        </mxCell>
        <mxCell id="ooWU4uST3X7tyOS2osCu-2" value="View and select suplier" style="rounded=1;whiteSpace=wrap;html=1;" vertex="1" parent="1">
          <mxGeometry x="315" y="318" width="120" height="60" as="geometry" />
        </mxCell>
        <mxCell id="ooWU4uST3X7tyOS2osCu-3" value="Add items to order" style="rounded=1;whiteSpace=wrap;html=1;" vertex="1" parent="1">
          <mxGeometry x="495" y="318" width="120" height="60" as="geometry" />
        </mxCell>
        <mxCell id="ooWU4uST3X7tyOS2osCu-4" value="All items are available?" style="rhombus;whiteSpace=wrap;html=1;" vertex="1" parent="1">
          <mxGeometry x="675" y="293" width="110" height="110" as="geometry" />
        </mxCell>
        <mxCell id="ooWU4uST3X7tyOS2osCu-5" value="Order details" style="rounded=1;whiteSpace=wrap;html=1;" vertex="1" parent="1">
          <mxGeometry x="845" y="318" width="120" height="60" as="geometry" />
        </mxCell>
        <mxCell id="ooWU4uST3X7tyOS2osCu-6" value="Payment" style="rounded=1;whiteSpace=wrap;html=1;" vertex="1" parent="1">
          <mxGeometry x="845" y="488" width="120" height="60" as="geometry" />
        </mxCell>
        <mxCell id="ooWU4uST3X7tyOS2osCu-7" value="Place order" style="rounded=1;whiteSpace=wrap;html=1;" vertex="1" parent="1">
          <mxGeometry x="600" y="488" width="110" height="60" as="geometry" />
        </mxCell>
        <mxCell id="ooWU4uST3X7tyOS2osCu-8" value="add items to inventory when they arrive" style="rounded=1;whiteSpace=wrap;html=1;" vertex="1" parent="1">
          <mxGeometry x="410" y="488" width="120" height="60" as="geometry" />
        </mxCell>
        <mxCell id="ooWU4uST3X7tyOS2osCu-10" value="" style="ellipse;shape=doubleEllipse;whiteSpace=wrap;html=1;aspect=fixed;" vertex="1" parent="1">
          <mxGeometry x="245" y="508" width="20" height="20" as="geometry" />
        </mxCell>
        <mxCell id="ooWU4uST3X7tyOS2osCu-13" value="" style="endArrow=classic;html=1;rounded=0;exitX=1;exitY=0.5;exitDx=0;exitDy=0;entryX=0;entryY=0.5;entryDx=0;entryDy=0;" edge="1" parent="1" source="ooWU4uST3X7tyOS2osCu-2" target="ooWU4uST3X7tyOS2osCu-3">
          <mxGeometry width="50" height="50" relative="1" as="geometry">
            <mxPoint x="455" y="558" as="sourcePoint" />
            <mxPoint x="505" y="508" as="targetPoint" />
          </mxGeometry>
        </mxCell>
        <mxCell id="ooWU4uST3X7tyOS2osCu-14" value="" style="endArrow=classic;html=1;rounded=0;exitX=1;exitY=0.5;exitDx=0;exitDy=0;entryX=0;entryY=0.5;entryDx=0;entryDy=0;" edge="1" parent="1" source="ooWU4uST3X7tyOS2osCu-1" target="ooWU4uST3X7tyOS2osCu-2">
          <mxGeometry width="50" height="50" relative="1" as="geometry">
            <mxPoint x="465" y="568" as="sourcePoint" />
            <mxPoint x="515" y="518" as="targetPoint" />
          </mxGeometry>
        </mxCell>
        <mxCell id="ooWU4uST3X7tyOS2osCu-15" value="" style="endArrow=classic;html=1;rounded=0;exitX=1;exitY=0.5;exitDx=0;exitDy=0;entryX=0;entryY=0.5;entryDx=0;entryDy=0;" edge="1" parent="1" source="ooWU4uST3X7tyOS2osCu-3" target="ooWU4uST3X7tyOS2osCu-4">
          <mxGeometry width="50" height="50" relative="1" as="geometry">
            <mxPoint x="475" y="578" as="sourcePoint" />
            <mxPoint x="525" y="528" as="targetPoint" />
          </mxGeometry>
        </mxCell>
        <mxCell id="ooWU4uST3X7tyOS2osCu-16" value="" style="endArrow=classic;html=1;rounded=0;exitX=1;exitY=0.5;exitDx=0;exitDy=0;entryX=0;entryY=0.5;entryDx=0;entryDy=0;" edge="1" parent="1" source="ooWU4uST3X7tyOS2osCu-4" target="ooWU4uST3X7tyOS2osCu-5">
          <mxGeometry width="50" height="50" relative="1" as="geometry">
            <mxPoint x="485" y="588" as="sourcePoint" />
            <mxPoint x="535" y="538" as="targetPoint" />
          </mxGeometry>
        </mxCell>
        <mxCell id="ooWU4uST3X7tyOS2osCu-17" value="True" style="edgeLabel;html=1;align=center;verticalAlign=middle;resizable=0;points=[];" vertex="1" connectable="0" parent="ooWU4uST3X7tyOS2osCu-16">
          <mxGeometry x="-0.0841" relative="1" as="geometry">
            <mxPoint as="offset" />
          </mxGeometry>
        </mxCell>
        <mxCell id="ooWU4uST3X7tyOS2osCu-18" value="" style="endArrow=classic;html=1;rounded=0;exitX=0.5;exitY=1;exitDx=0;exitDy=0;entryX=0.5;entryY=0;entryDx=0;entryDy=0;" edge="1" parent="1" source="ooWU4uST3X7tyOS2osCu-5" target="ooWU4uST3X7tyOS2osCu-6">
          <mxGeometry width="50" height="50" relative="1" as="geometry">
            <mxPoint x="495" y="598" as="sourcePoint" />
            <mxPoint x="545" y="548" as="targetPoint" />
          </mxGeometry>
        </mxCell>
        <mxCell id="ooWU4uST3X7tyOS2osCu-19" value="" style="endArrow=classic;html=1;rounded=0;entryX=1;entryY=0.5;entryDx=0;entryDy=0;exitX=0;exitY=0.5;exitDx=0;exitDy=0;" edge="1" parent="1" source="ooWU4uST3X7tyOS2osCu-6" target="ooWU4uST3X7tyOS2osCu-7">
          <mxGeometry width="50" height="50" relative="1" as="geometry">
            <mxPoint x="505" y="608" as="sourcePoint" />
            <mxPoint x="555" y="558" as="targetPoint" />
          </mxGeometry>
        </mxCell>
        <mxCell id="ooWU4uST3X7tyOS2osCu-20" value="" style="endArrow=classic;html=1;rounded=0;entryX=1;entryY=0.5;entryDx=0;entryDy=0;" edge="1" parent="1" source="ooWU4uST3X7tyOS2osCu-7" target="ooWU4uST3X7tyOS2osCu-8">
          <mxGeometry width="50" height="50" relative="1" as="geometry">
            <mxPoint x="515" y="618" as="sourcePoint" />
            <mxPoint x="565" y="568" as="targetPoint" />
          </mxGeometry>
        </mxCell>
        <mxCell id="ooWU4uST3X7tyOS2osCu-21" value="" style="endArrow=classic;html=1;rounded=0;entryX=1;entryY=0.5;entryDx=0;entryDy=0;exitX=0;exitY=0.5;exitDx=0;exitDy=0;" edge="1" parent="1" source="ooWU4uST3X7tyOS2osCu-8" target="ooWU4uST3X7tyOS2osCu-10">
          <mxGeometry width="50" height="50" relative="1" as="geometry">
            <mxPoint x="525" y="628" as="sourcePoint" />
            <mxPoint x="425" y="518" as="targetPoint" />
          </mxGeometry>
        </mxCell>
        <mxCell id="ooWU4uST3X7tyOS2osCu-23" value="" style="edgeStyle=elbowEdgeStyle;elbow=vertical;endArrow=classic;html=1;curved=0;rounded=0;endSize=8;startSize=8;exitX=0.5;exitY=0;exitDx=0;exitDy=0;entryX=0.5;entryY=0;entryDx=0;entryDy=0;" edge="1" parent="1" source="ooWU4uST3X7tyOS2osCu-4" target="ooWU4uST3X7tyOS2osCu-2">
          <mxGeometry width="50" height="50" relative="1" as="geometry">
            <mxPoint x="645" y="418" as="sourcePoint" />
            <mxPoint x="695" y="368" as="targetPoint" />
            <Array as="points">
              <mxPoint x="645" y="258" />
            </Array>
          </mxGeometry>
        </mxCell>
        <mxCell id="ooWU4uST3X7tyOS2osCu-24" value="False" style="edgeLabel;html=1;align=center;verticalAlign=middle;resizable=0;points=[];" vertex="1" connectable="0" parent="ooWU4uST3X7tyOS2osCu-23">
          <mxGeometry x="-0.1386" y="-1" relative="1" as="geometry">
            <mxPoint as="offset" />
          </mxGeometry>
        </mxCell>
        <mxCell id="ooWU4uST3X7tyOS2osCu-25" value="Create Order From Supplier Activity Diagram" style="text;strokeColor=none;fillColor=none;html=1;fontSize=24;fontStyle=1;verticalAlign=middle;align=center;" vertex="1" parent="1">
          <mxGeometry x="245" y="178" width="720" height="40" as="geometry" />
        </mxCell>
      </root>
    </mxGraphModel>
  </diagram>
</mxfile>
